<svg xmlns="http://www.w3.org/2000/svg" width="26.863" height="24.277" viewBox="0 0 26.863 24.277"><path d="M1227.506,362.665h-2.128v-1.5a.665.665,0,0,0-1.33,0v1.5h-11.436v-1.5a.665.665,0,1,0-1.33,0v1.5h-2.926a3.861,3.861,0,0,0-3.856,3.857v14.4a3.861,3.861,0,0,0,3.856,3.857h19.15a3.861,3.861,0,0,0,3.856-3.857v-14.4A3.861,3.861,0,0,0,1227.506,362.665Zm-19.15,1.33h2.926v1.175a.665.665,0,1,0,1.33,0v-1.175h11.436v1.175a.665.665,0,0,0,1.33,0v-1.175h2.128a2.529,2.529,0,0,1,2.527,2.527v2.931h-24.2v-2.931A2.529,2.529,0,0,1,1208.356,363.995Zm5.679,14.724v-2.926h7.713v2.926Zm7.713,1.33v3.4h-7.713v-3.4Zm0-9.266v3.681h-7.713v-3.681Zm-9.043,3.681h-6.876v-3.681h6.876Zm0,1.33v2.926h-6.876v-2.926Zm10.373,0h6.954v2.926h-6.954Zm0-1.33v-3.681h6.954v3.681Zm-17.249,6.457v-.872h6.876v3.4h-4.35A2.529,2.529,0,0,1,1205.83,380.921Zm21.676,2.527h-4.427v-3.4h6.954v.872A2.529,2.529,0,0,1,1227.506,383.447Z" transform="translate(-1204.5 -360.5)" fill="#f2f0c9"/></svg>