<svg xmlns="http://www.w3.org/2000/svg" width="34.255" height="29" viewBox="0 0 34.255 29"><g transform="translate(-935.5 -474.5)"><g transform="translate(943.674 474.889)"><path d="M981.218,478.225H957.862a1.362,1.362,0,0,1,0-2.725h23.356a1.362,1.362,0,0,1,0,2.725Z" transform="translate(-956.5 -475.5)" fill="#f2f0c9"/></g><g transform="translate(943.674 487.554)"><path d="M981.218,510.76H957.862a1.362,1.362,0,0,1,0-2.725h23.356a1.362,1.362,0,0,1,0,2.725Z" transform="translate(-956.5 -508.035)" fill="#f2f0c9"/></g><g transform="translate(943.674 500.581)"><path d="M981.218,544.225H957.862a1.362,1.362,0,0,1,0-2.725h23.356a1.362,1.362,0,0,1,0,2.725Z" transform="translate(-956.5 -541.5)" fill="#f2f0c9"/></g><g transform="translate(935.5 474.5)"><circle cx="1.557" cy="1.557" r="1.557" fill="#f2f0c9"/></g><g transform="translate(935.695 487.54)"><circle cx="1.557" cy="1.557" r="1.557" transform="translate(0 0)" fill="#f2f0c9"/></g><g transform="translate(935.695 500.386)"><circle cx="1.557" cy="1.557" r="1.557" transform="translate(0 0)" fill="#f2f0c9"/></g></g></svg>